<?xml version="1.0" encoding="iso-8859-1"?>
<!-- Generator: Adobe Illustrator 16.0.0, SVG Export Plug-In . SVG Version: 6.00 Build 0)  -->
<!DOCTYPE svg PUBLIC "-//W3C//DTD SVG 1.1//EN" "http://www.w3.org/Graphics/SVG/1.1/DTD/svg11.dtd">
<svg version="1.1" id="Capa_1" xmlns="http://www.w3.org/2000/svg" xmlns:xlink="http://www.w3.org/1999/xlink" x="0px" y="0px"
	 width="931.764px" height="931.764px" viewBox="0 0 931.764 931.764" style="enable-background:new 0 0 931.764 931.764;"
	 xml:space="preserve">
<g>
	<g>
		<path d="M289.656,101c68.542,0,0-101,0-101S221.114,101,289.656,101z"/>
		<path d="M311.114,299.205V155.141H268.2c0,0.033-0.001,0.063-0.001,0.096c0,37.782,0,141.458,0,180.68l33.915-29.012
			L311.114,299.205z"/>
		<path d="M245.114,129c0,10.571,8.57,19.141,19.141,19.141h4.329h42.531h3.944c10.57,0,19.141-8.57,19.141-19.141
			s-8.57-19.141-19.141-19.141h-50.804C253.683,109.859,245.114,118.429,245.114,129z"/>
		<path d="M661.354,589.968c13.971,0,25.296-11.325,25.296-25.296c0-13.604-10.739-24.695-24.201-25.269l-32.324,50.564H661.354z"/>
		<path d="M539.176,489.88c1.732-2.711,3.759-5.157,6.004-7.337l-42.997-43.368c-0.241,8.197-0.55,16.225-0.925,24.088l8.483,72.66
			L539.176,489.88z"/>
		<path d="M652.635,491.083h-79.133c-5.358,0-10.435,2.072-14.239,5.666c-1.221,1.152-2.312,2.457-3.236,3.904l-42.619,66.669
			l0.643,5.507l5.071,43.433h57.559c8.035,0,15.517-4.097,19.845-10.867l9.86-15.426l32.343-50.593l21.733-34
			C664.417,499.192,659.976,491.083,652.635,491.083z"/>
		<path d="M501.321,636.261l-1.167-10l-1.168-10l-2.604-22.306l-1.833-15.699l-0.634-5.428l-1.199-10.271l-0.274-2.354
			c-0.169,1.199-0.339,2.396-0.511,3.585c-0.443,3.049-0.899,6.059-1.365,9.041c-0.839,5.361-1.712,10.621-2.625,15.768
			c-1.645,9.276-3.404,18.215-5.273,26.814c-0.062,0.286-0.126,0.566-0.188,0.852c-0.74,3.386-1.497,6.719-2.271,10
			c-0.798,3.39-1.615,6.719-2.447,10c-43.984,173.551-133.975,197.913-171.482,200.222l-22.83,95.28h252.371L501.321,636.261z"/>
		<path d="M412.678,269.13c0.178-0.571,0.222-1.213,0.063-1.859l-10.108-41.387c-0.684-2.802-3.951-2.797-4.629,0.007l-9.99,41.415
			c-0.12,0.497-0.121,0.991-0.036,1.453c3.692-0.614,7.481-0.938,11.346-0.938C403.893,267.82,408.356,268.278,412.678,269.13z"/>
		<path d="M340.75,248.586l15.278,34.579c6.084-4.925,13.019-8.834,20.548-11.475l-32.153-25.921
			C342.178,243.96,339.584,245.948,340.75,248.586z"/>
		<path d="M318.807,288.199l17.675,13.503l2.447,1.87c0.104-0.19,0.208-0.38,0.314-0.569c2.856-5.063,6.331-9.729,10.325-13.898
			l-28.899-5.143C317.831,283.457,316.515,286.448,318.807,288.199z"/>
		<path d="M480.089,283.962l-30.715,5.466c4.312,4.556,8.008,9.693,10.958,15.288l21.62-16.517
			C484.245,286.448,482.93,283.457,480.089,283.962z"/>
		<path d="M456.336,245.77l-32.808,26.448c7.606,2.862,14.571,7.037,20.631,12.24l15.85-35.872
			C461.176,245.948,458.582,243.96,456.336,245.77z"/>
		<path d="M306.229,567.686l24.219-28.359v-16.551v-38.288v-16.061v-12.562V345.136c-5.336-7.941-10.544-16.174-15.334-23.033
			l-4,3.422l-38.708,33.112l-4.208,3.6C268.198,362.237,277.493,523.589,306.229,567.686z"/>
		<path d="M358.94,309.125c-0.542,0.791-1.064,1.597-1.561,2.421c-0.604,1.003-1.165,2.035-1.696,3.083
			c-0.987,1.942-1.849,3.957-2.572,6.038c-1.074,3.085-1.845,6.309-2.284,9.64c-0.181,1.377-0.313,2.769-0.379,4.179v15.806v165.616
			l97.811-114.533v-64.619c0-27.026-21.907-48.934-48.934-48.934C382.553,287.82,367.756,296.262,358.94,309.125z"/>
		<path d="M341.635,807.531c22.121-9.519,42.274-25.881,59.9-48.633c23.434-30.249,42.121-71.506,55.572-122.638
			c0.214-0.812,0.43-1.618,0.641-2.435c2.178-8.435,4.21-17.148,6.106-26.12c2.37-11.215,4.522-22.841,6.451-34.878
			c5.331-33.275,8.969-69.655,10.893-108.927c0.43-8.784,0.775-17.714,1.034-26.784c0.166-5.831,0.296-11.725,0.391-17.672
			c0.022-1.365,0.047-2.726,0.065-4.097h-1.086h-13.345h-5.635l-4.365,5.111l-10,11.709L322.895,578.968l-7.589,8.888l-6.032,7.063
			v1.374v177.475v24.722v17.688c1.123-0.118,2.285-0.26,3.482-0.428C320.916,814.602,330.764,812.209,341.635,807.531z"/>
	</g>
</g>
<g>
</g>
<g>
</g>
<g>
</g>
<g>
</g>
<g>
</g>
<g>
</g>
<g>
</g>
<g>
</g>
<g>
</g>
<g>
</g>
<g>
</g>
<g>
</g>
<g>
</g>
<g>
</g>
<g>
</g>
</svg>
